<svg width="120" height="614" fill="none" xmlns="http://www.w3.org/2000/svg"><path d="M12.75 510.65c2.6 1 6.4 2.35 11.4 4.05 4.9 1.7 11.3 3.3 19.2 4.8v3c-1.4-.3-2.85-.5-4.35-.6-1.5-.2-2.8-.3-3.9-.3-4.1 0-7.55.9-10.35 2.7-2.9 1.7-5.1 4.15-6.6 7.35-1.6 3.2-2.4 7.05-2.4 11.55 0 4.3 1.1 8.1 3.3 11.4 2.2 3.2 5.95 4.8 11.25 4.8 3.4 0 6.75-.8 10.05-2.4 3.2-1.6 6.4-3.65 9.6-6.15 3.2-2.6 6.45-5.3 9.75-8.1 3.2-2.9 6.5-5.6 9.9-8.1 3.3-2.6 6.8-4.7 10.5-6.3 3.7-1.6 7.6-2.4 11.7-2.4 5.5 0 10.2 1.45 14.1 4.35 3.8 2.9 6.9 6.6 9.3 11.1 2.4 4.5 4.15 9.25 5.25 14.25 1.1 5 1.65 9.65 1.65 13.95 0 5.2-.25 9.45-.75 12.75-.5 3.3-1.25 6.15-2.25 8.55-1.1 2.4-2.4 5-3.9 7.8-.6 1-1.1 1.95-1.5 2.85-.5.9-.75 1.65-.75 2.25 0 1.3.55 2.35 1.65 3.15 1.1.8 3.25 1.9 6.45 3.3v3c-2.2-.9-4.75-1.85-7.65-2.85-2.9-1-6.6-2.1-11.1-3.3-4.6-1.2-10.35-2.55-17.25-4.05v-3c1.5.5 3.4.9 5.7 1.2 2.2.2 4.2.25 6 .15 7.3-.3 12.8-2.6 16.5-6.9 3.6-4.3 5.4-10.15 5.4-17.55 0-7-1.3-11.65-3.9-13.95-2.7-2.4-6-3.6-9.9-3.6-4.2 0-8.1.75-11.7 2.25-3.7 1.4-7.15 3.25-10.35 5.55-3.3 2.3-6.5 4.75-9.6 7.35-3.2 2.5-6.4 4.9-9.6 7.2-3.2 2.3-6.55 4.2-10.05 5.7-3.6 1.4-7.4 2.1-11.4 2.1-5.3 0-9.85-1.2-13.65-3.6-3.8-2.5-6.95-5.75-9.45-9.75-2.5-4-4.35-8.3-5.55-12.9-1.2-4.6-1.8-9-1.8-13.2 0-7.1.9-12.75 2.7-16.95 1.7-4.2 3.1-7.4 4.2-9.6l1.35-2.7c.5-1 .75-1.75.75-2.25 0-1.4-2.65-3.05-7.95-4.95v-3Zm0-95.906c2.6 1 6.4 2.35 11.4 4.05 4.9 1.7 11.3 3.3 19.2 4.8v3c-1.4-.3-2.85-.5-4.35-.6-1.5-.2-2.8-.3-3.9-.3-4.1 0-7.55.9-10.35 2.7-2.9 1.7-5.1 4.15-6.6 7.35-1.6 3.2-2.4 7.05-2.4 11.55 0 4.3 1.1 8.1 3.3 11.4 2.2 3.2 5.95 4.8 11.25 4.8 3.4 0 6.75-.8 10.05-2.4 3.2-1.6 6.4-3.65 9.6-6.15 3.2-2.6 6.45-5.3 9.75-8.1 3.2-2.9 6.5-5.6 9.9-8.1 3.3-2.6 6.8-4.7 10.5-6.3 3.7-1.6 7.6-2.4 11.7-2.4 5.5 0 10.2 1.45 14.1 4.35 3.8 2.9 6.9 6.6 9.3 11.1 2.4 4.5 4.15 9.25 5.25 14.25 1.1 5 1.65 9.65 1.65 13.95 0 5.2-.25 9.45-.75 12.75-.5 3.3-1.25 6.15-2.25 8.55-1.1 2.4-2.4 5-3.9 7.8-.6 1-1.1 1.95-1.5 2.85-.5.9-.75 1.65-.75 2.25 0 1.3.55 2.35 1.65 3.15 1.1.8 3.25 1.9 6.45 3.3v3c-2.2-.9-4.75-1.85-7.65-2.85-2.9-1-6.6-2.1-11.1-3.3-4.6-1.2-10.35-2.55-17.25-4.05v-3c1.5.5 3.4.9 5.7 1.2 2.2.2 4.2.25 6 .15 7.3-.3 12.8-2.6 16.5-6.9 3.6-4.3 5.4-10.15 5.4-17.55 0-7-1.3-11.65-3.9-13.95-2.7-2.4-6-3.6-9.9-3.6-4.2 0-8.1.75-11.7 2.25-3.7 1.4-7.15 3.25-10.35 5.55-3.3 2.3-6.5 4.75-9.6 7.35-3.2 2.5-6.4 4.9-9.6 7.2-3.2 2.3-6.55 4.2-10.05 5.7-3.6 1.4-7.4 2.1-11.4 2.1-5.3 0-9.85-1.2-13.65-3.6-3.8-2.5-6.95-5.75-9.45-9.75-2.5-4-4.35-8.3-5.55-12.9-1.2-4.6-1.8-9-1.8-13.2 0-7.1.9-12.75 2.7-16.95 1.7-4.2 3.1-7.4 4.2-9.6l1.35-2.7c.5-1 .75-1.75.75-2.25 0-1.4-2.65-3.05-7.95-4.95v-3Zm106.35-51.956c0-1.3-.15-2.65-.45-4.05-.3-1.4-.85-2.65-1.65-3.75a9.7 9.7 0 0 0-4.2-3.3c-1.8-.7-4.4-1.5-7.8-2.4l-13.2-3.45c-4.1-1.1-7.15-1.5-9.15-1.2-2 .2-3.35 1.3-4.05 3.3-.7 1.9-1.1 4.95-1.2 9.15l-3-.75c.1-2.3.2-5.1.3-8.4 0-3.3.05-6.7.15-10.2v-9.9c0-5.1-.05-9.8-.15-14.1-.1-4.4-.2-7.95-.3-10.65l3 .75c.1 2.2.45 3.95 1.05 5.25.6 1.2 1.8 2.25 3.6 3.15 1.8.8 4.55 1.7 8.25 2.7l29.7 7.95v3c-3.2-.1-5.4.35-6.6 1.35-1.3 1-1.95 2.5-1.95 4.5 0 2.8.8 5.75 2.4 8.85 1.5 3 2.8 5.8 3.9 8.4 1.7 3.7 2.85 7.1 3.45 10.2.6 3 .9 6 .9 9 0 13.5-3 24.15-9 31.95-6 7.7-14.45 11.55-25.35 11.55-6.8 0-13.75-1.15-20.85-3.45-7.1-2.4-13.95-5.8-20.55-10.2-6.6-4.5-12.5-9.85-17.7-16.05-5.2-6.3-9.3-13.35-12.3-21.15-3.1-7.8-4.65-16.25-4.65-25.351 0-6.499.95-11.499 2.85-14.999 1.9-3.6 4.2-6.8 6.9-9.6 1.5-1.5 1.75-2.9.75-4.2-1-1.3-3.8-2.75-8.4-4.351v-3.299c3.9 1.5 8.65 3.05 14.25 4.65 5.5 1.6 12.25 3.25 20.25 4.95v3.3c-2-.2-3.9-.35-5.7-.45-1.9-.2-3.75-.3-5.55-.3-2.1 0-4 .15-5.7.45-1.7.2-3.45.75-5.25 1.65-3.8 1.9-6.7 4.8-8.7 8.7-2 3.8-3 8.6-3 14.4 0 5.8 1.8 11.1 5.4 15.9 3.5 4.7 8.2 8.9 14.1 12.6 5.8 3.6 12.2 6.6 19.2 9 6.9 2.4 13.85 4.25 20.85 5.55 6.9 1.2 13.15 1.8 18.75 1.8 9 0 15.65-1.55 19.95-4.65 4.3-3.1 6.45-7.7 6.45-13.8Zm-69-159.537c0 1.6.9 3.3 2.7 5.1 1.8 1.7 4.3 3.4 7.5 5.1 3.2 1.7 6.85 3.3 10.95 4.8s8.45 2.8 13.05 3.9l-14.7-2.85c-6.9-2.7-12.5-5.35-16.8-7.95-4.4-2.7-7.6-5.6-9.6-8.7-2.1-3.1-3.15-6.55-3.15-10.35 0-7 2.15-12.15 6.45-15.45 4.2-3.4 10.2-5.1 18-5.1 4.7 0 9.7.7 15 2.1 5.2 1.4 10.35 3.45 15.45 6.15 5 2.7 9.55 6 13.65 9.9 4.1 3.9 7.4 8.4 9.9 13.5 2.4 5 3.6 10.6 3.6 16.8 0 2.8-.4 5.35-1.2 7.65-.8 2.2-1.75 3.95-2.85 5.25l-1.95-1.05c.3-.8.55-1.6.75-2.4.2-.8.3-1.7.3-2.7 0-2.7-1.2-5.35-3.6-7.95-2.5-2.7-5.8-5.2-9.9-7.5-4.2-2.3-8.85-4.35-13.95-6.15-5.1-1.8-10.3-3.2-15.6-4.2-5.4-1-10.55-1.5-15.45-1.5-3.5 0-5.8.3-6.9.9-1.1.6-1.65 1.5-1.65 2.7Zm68.85 28.35c-1.1 3.9-1.15 8.15-.15 12.75.9 4.5 2.1 8.75 3.6 12.75l-1.05 2.25c-1.4-.7-2.8-1.35-4.2-1.95-1.5-.5-3.05-.95-4.65-1.35l-92.55-27.6c-3.4-1-5.9-.9-7.5.3-1.6 1.2-2.4 4.25-2.4 9.15l-3.15-1.05c-.1-8.2-.65-15.45-1.65-21.75-1.1-6.4-2.6-12.55-4.5-18.45l118.2 34.95Zm-78.9-117.03c0-8.3 1.5-14.8 4.5-19.5 3-4.7 6.95-7.05 11.85-7.05 3.6 0 7 1.2 10.2 3.6 3.1 2.4 6 5.5 8.7 9.3 2.7 3.8 5.3 7.95 7.8 12.45 2.4 4.4 4.7 8.7 6.9 12.901 2.2 4.2 4.35 7.85 6.45 10.95 0-2.2.35-4.55 1.05-7.05.7-2.6 1.4-5.35 2.1-8.25.7-3 1.05-6.1 1.05-9.3 0-4.101-.6-7.551-1.8-10.351-1.2-2.8-3-4.2-5.4-4.2-2.6 0-4.8 1.6-6.6 4.8l-1.95-1.5c1.7-3.1 3.65-5.25 5.85-6.45 2.1-1.3 4.6-1.95 7.5-1.95 3.6 0 7.15.9 10.65 2.7 3.5 1.8 6.4 4.651 8.7 8.551 2.2 3.8 3.3 8.85 3.3 15.15 0 3.3-.35 6.55-1.05 9.75-.7 3.2-1.4 6.5-2.1 9.9-.8 3.3-1.25 6.9-1.35 10.8-.2 4 .05 7.25.75 9.75.6 2.4 1.55 5.15 2.85 8.25l-3.15-.75c-1.5-1.8-3.45-4.3-5.85-7.5-2.4-3.3-5.15-6.95-8.25-10.95-3.2-4-6.6-8-10.2-12-3.7-4.101-7.55-7.851-11.55-11.251-4-3.4-8.05-6.15-12.15-8.25-4.2-2.1-8.35-3.15-12.45-3.15s-7.05 1.05-8.85 3.15c-1.8 2.1-2.7 4.85-2.7 8.25 0 3.1.65 6.2 1.95 9.3 1.3 3 3.05 5.75 5.25 8.25 2.1 2.5 4.5 4.5 7.2 6s5.45 2.25 8.25 2.25c2.4 0 4.2-.65 5.4-1.95 1.2-1.3 1.8-3.5 1.8-6.6 0-2.9-.5-5.35-1.5-7.35-1.1-2.1-2.65-4.3-4.65-6.6l2.1-1.8c2.6 2.8 4.45 5.65 5.55 8.55 1.1 2.9 1.65 5.6 1.65 8.1 0 1.6-.25 3.3-.75 5.1-.6 1.7-1.6 3.15-3 4.35-1.5 1.2-3.65 1.8-6.45 1.8-3.3 0-6.55-.95-9.75-2.85-3.3-1.9-6.3-4.6-9-8.1s-4.85-7.7-6.45-12.6c-1.6-5-2.4-10.55-2.4-16.65Zm48.45-62.95a69.3 69.3 0 0 0-5.4-9.45c-2.1-3.1-4.4-5.95-6.9-8.55-3.9-4-8.35-7.25-13.35-9.75-5-2.6-10.4-3.9-16.2-3.9-1.4 0-2.35.2-2.85.6-.6.4-.9 1-.9 1.8 0 2 1.15 4.2 3.45 6.6 2.2 2.3 5.2 4.6 9 6.9 3.7 2.3 7.9 4.4 12.6 6.3 4.7 1.8 9.55 3.3 14.55 4.5 4.9 1.1 9.65 1.65 14.25 1.65 5.8 0 9.7-1.15 11.7-3.45 1.9-2.3 2.85-5.3 2.85-9 0-2-.75-5-2.25-9s-4.25-8-8.25-12l1.2-2.4c3.3 2.2 6.5 5.1 9.6 8.7 3.1 3.6 5.65 7.85 7.65 12.75 1.9 4.9 2.85 10.4 2.85 16.5 0 4.7-.8 9.05-2.4 13.05-1.6 3.9-3.95 7.05-7.05 9.45-3.2 2.3-7.1 3.45-11.7 3.45-5.9 0-11.75-.9-17.55-2.7-5.8-1.9-11.3-4.55-16.5-7.95-5.2-3.4-9.8-7.45-13.8-12.15-4.1-4.8-7.3-10.1-9.6-15.9-2.3-5.8-3.45-12-3.45-18.6 0-5.3 1.1-9.7 3.3-13.2 2.1-3.6 5.4-5.4 9.9-5.4 3.8 0 7.4 1 10.8 3 3.3 2 6.35 4.75 9.15 8.25 2.7 3.5 5.15 7.45 7.35 11.85 2.2 4.4 4.1 9.05 5.7 13.95 1.6 4.8 2.85 9.55 3.75 14.25l-1.5-.15Z" fill="#FDFDFD"/></svg>